# xmcd
#
# Track frame offsets: 
#        150
#        12790
#        28200
#        40292
#        50930
#        67697
#        80475
#        92607
#        105642
#        120722
#        133712
#        147072
#        158815
#        179205
#        191967
#        213307
#        227277
#        245407
#        258657
#        274732
#        292450
#        305897
#
# Disc length: 4303 seconds
#
# Revision: 3
# Processed by: cddbd v1.4PL0 Copyright (c) Steve Scherf et al.
# Submitted via: ExactAudioCopy v0.90b2
#
DISCID=5010cd16
DTITLE=Conway Twitty - The Conway Twitty Collection - Disc 3
DYEAR=1900
DGENRE=Country
TTITLE0=I've Already Loved You In My Mind
TTITLE1=The Grandest Lady Of Them All
TTITLE2=Your Love Had Taken Me That High
TTITLE3=Boogie Grass Band
TTITLE4=Don't Take It Away
TTITLE5=I May Never Get To Heaven
TTITLE6=You Know Just What I'd Do (With Loretta Lynn)
TTITLE7=Happy Birthday Darlin'
TTITLE8=I'd Love To Lay You Down
TTITLE9=It's Ttue Love (With Loretta Lynn)
TTITLE10=A Bridge That Just Won't Burn
TTITLE11=Lovin' What Your Lovin' Does To Me (With Loretta Lynn)
TTITLE12=Rest Your Love On Me
TTITLE13=Tight Fittin' Jeans
TTITLE14=Red Neckin' Love Makin' Night
TTITLE15=We Had It All
TTITLE16=The Clown
TTITLE17=Slow Hand
TTITLE18=The Rose
TTITLE19=Somebody's Needin' Somebody
TTITLE20=I Don't Know A Thing About Love
TTITLE21=Julia
EXTD=
EXTT0=
EXTT1=
EXTT2=
EXTT3=
EXTT4=
EXTT5=
EXTT6=
EXTT7=
EXTT8=
EXTT9=
EXTT10=
EXTT11=
EXTT12=
EXTT13=
EXTT14=
EXTT15=
EXTT16=
EXTT17=
EXTT18=
EXTT19=
EXTT20=
EXTT21=
PLAYORDER=
